/* XPM */
static char * rx_xpm[] = {
"24 24 4 1",
" 	c None",
".	c black",
"X	c green",
"o	c gray50",
"                        ",
"                        ",
"                        ",
"                        ",
"                        ",
"         .........      ",
"         .XXXXXX.o      ",
"        .XXXXXX.o       ",
"        .XXXXX.o        ",
"       .XXXXX.o         ",
"       .XXXX.....       ",
"      .XXXXXXXX.o       ",
"      .....XXX.o        ",
"       oo.XXX.o         ",
"         .XX.o          ",
"        .XX.o           ",
"        .X.o            ",
"       .X.o             ",
"       ..o              ",
"                        ",
"                        ",
"                        ",
"                        ",
"                        ",
};
