/* XPM */
static char * tune_xpm[] = {
"24 24 6 1",
" 	c None",
".	c #000000",
"+	c #404040",
"@	c #FF0000",
"#	c #606060",
"$	c #303030",
"                        ",
"      ..                ",
"     . ++         @@@@@ ",
"    .   .          @@@@ ",
"  # +    .         @@@@ ",
"   .      .       @@@@@ ",
"   +      +#     @@@  @ ",
"  ++      #+    @@@     ",
"  .        .   @@@      ",
" #+        +# @@@       ",
" $          +@@@        ",
" .          @@@        .",
"...........@@@..........",
"          @@@.        #+",
"         @@@ +        . ",
"        @@@  .        + ",
"       @@@   #+      #+ ",
"      @@@     .      .  ",
"     @@@      +      +  ",
"    @@@        +    ++  ",
"   @@@         .   #.   ",
"  @@@           .+.+    ",
"  @@             +      ",
"                        "};
